<svg width="32" height="32" viewBox="0 0 32 32" fill="none" xmlns="http://www.w3.org/2000/svg">
<path fill-rule="evenodd" clip-rule="evenodd" d="M2.3831 8.09904C3.80166 6.58996 5.22022 6.08694 7.11103 7.09299C8.81403 7.99862 9.75032 8.08872 10.61 8.0981C11.5062 8.08872 12.4808 7.99862 14.2549 7.09299C16.2241 6.08694 17.701 6.58996 19.1788 8.09904C20.9201 9.8784 21.458 11.731 21.6412 13.1302C21.6631 13.2429 21.6814 13.3555 21.6987 13.4681C21.1109 13.6447 20.5848 13.9916 20.1833 14.4674C19.7817 14.9433 19.5216 15.528 19.434 16.1519C19.3463 16.7757 19.4349 17.4123 19.689 17.9858C19.9431 18.5592 20.3521 19.0454 20.8672 19.3862L20.7952 19.5767C20.4342 19.3135 20.0239 19.1306 19.5905 19.0394C19.1571 18.9482 18.71 18.9508 18.2776 19.047C17.8452 19.1432 17.4369 19.3309 17.0788 19.5982C16.7206 19.8655 16.4203 20.2065 16.197 20.5996C15.9737 20.9927 15.8323 21.4293 15.7817 21.8817C15.7311 22.3341 15.7724 22.7924 15.903 23.2275C16.0336 23.6626 16.2507 24.0649 16.5405 24.409C16.8302 24.7531 17.1863 25.0315 17.5861 25.2263C17.5038 25.3314 17.4196 25.435 17.3336 25.537C16.5724 26.3525 15.7063 26.8752 14.7672 26.7157C11.8134 26.2117 11.3211 26.2117 10.8288 26.2117H10.4003C9.92809 26.2117 9.45493 26.2117 6.61872 26.7157C4.34866 27.1174 2.52532 23.1936 1.62094 21.1824C0.198734 18.0263 -0.0847961 14.8007 0.0191345 13.1302C0.195087 11.73 0.712005 9.8784 2.3831 8.09998" fill="#FF9800"/>
<path fill-rule="evenodd" clip-rule="evenodd" d="M28.1205 9.46931C29.1446 9.84756 29.9808 10.6291 30.4452 11.6419C30.9095 12.6548 30.964 13.8161 30.5967 14.8703C30.5675 14.9538 30.5283 15.0298 30.4809 15.0983C31.2246 15.7573 31.7144 16.6687 31.8616 17.6674C32.0088 18.6661 31.8036 19.6861 31.2831 20.5425C31.0272 20.9623 30.7017 21.3327 30.3213 21.6367C30.4036 22.4759 30.2387 23.3212 29.8482 24.0627C30.3562 24.3454 30.8006 24.7354 31.1522 25.2071C31.5037 25.6788 31.7546 26.2216 31.8883 26.8C32.0221 27.3784 32.0356 27.9793 31.9282 28.5635C31.8207 29.1476 31.5947 29.7019 31.2648 30.1899C30.9349 30.6779 30.5087 31.0887 30.0139 31.3955C29.5192 31.7022 28.9671 31.898 28.3938 31.9699C27.8204 32.0419 27.2388 31.9884 26.687 31.813C26.1351 31.6376 25.6255 31.3442 25.1913 30.9521C24.498 31.5373 23.6376 31.8726 22.7417 31.9067C21.8457 31.9408 20.9636 31.6718 20.2302 31.1409C19.4968 30.61 18.9526 29.8464 18.6807 28.9669C18.4089 28.0874 18.4244 27.1405 18.7249 26.2709C17.6765 26.2129 16.6896 25.7433 15.9675 24.9588C15.2453 24.1743 14.8428 23.1347 14.8428 22.0539C14.8428 20.9731 15.2453 19.9335 15.9675 19.149C16.6896 18.3645 17.6765 17.8949 18.7249 17.8368C18.4982 17.1801 18.433 16.476 18.5349 15.787C18.6368 15.0981 18.9028 14.4458 19.3091 13.8884C19.7154 13.331 20.2493 12.8857 20.8634 12.5923C21.4774 12.2989 22.1525 12.1665 22.8283 12.2069C22.8374 12.144 22.852 12.0802 22.8739 12.0173C23.2415 10.9633 24.0008 10.1027 24.9847 9.6249C25.9686 9.14707 27.0966 9.09111 28.1205 9.46931ZM26.3127 29.4655C26.5574 29.7086 26.8518 29.8922 27.1744 30.0029C27.4969 30.1136 27.8394 30.1486 28.1768 30.1053C28.5142 30.0621 28.838 29.9417 29.1243 29.7529C29.4107 29.5642 29.6523 29.3119 29.8317 29.0145C30.011 28.7171 30.1234 28.3822 30.1607 28.0343C30.198 27.6864 30.1591 27.3343 30.0471 27.0039C29.935 26.6734 29.7526 26.373 29.5131 26.1245C29.2736 25.8761 28.9831 25.6859 28.663 25.568C28.6319 25.5566 28.6015 25.5434 28.5718 25.5286C27.9656 25.9603 27.2408 26.2287 26.4586 26.2719C26.6108 26.713 26.6938 27.1897 26.6938 27.6852C26.6938 28.3215 26.557 28.924 26.3127 29.4655ZM26.4586 17.8378C27.0922 17.8724 27.7094 18.058 28.2616 18.3799C28.8137 18.7019 29.2857 19.1514 29.6403 19.6931C29.8563 19.3908 29.9991 19.0398 30.0569 18.6692C30.1242 18.2339 30.0709 17.7879 29.9033 17.3823C29.7357 16.9767 29.4605 16.628 29.1092 16.3759C28.7579 16.1239 28.3447 15.9789 27.9171 15.9574C27.4894 15.9359 27.0645 16.0389 26.691 16.2545C26.7123 16.7924 26.6334 17.3304 26.4586 17.8378ZM26.2006 14.4132C27.0492 14.0428 27.9941 13.9767 28.8836 14.2255C29.0844 13.6399 29.0515 12.9962 28.792 12.4355C28.5325 11.8748 28.0676 11.4429 27.4993 11.2345C26.931 11.0261 26.3055 11.0581 25.7601 11.3236C25.2147 11.5891 24.7938 12.0663 24.5896 12.6508C24.5817 12.6736 24.5729 12.6962 24.5632 12.7183C25.2555 13.1101 25.8239 13.6984 26.2006 14.4132ZM22.5913 14.0773C21.9868 14.0773 21.4071 14.3244 20.9796 14.7644C20.5522 15.2044 20.3121 15.8012 20.3121 16.4235C20.3121 17.0457 20.5522 17.6425 20.9796 18.0825C21.4071 18.5225 21.9868 18.7697 22.5913 18.7697C23.1957 18.7697 23.7755 18.5225 24.2029 18.0825C24.6303 17.6425 24.8704 17.0457 24.8704 16.4235C24.8704 15.8012 24.6303 15.2044 24.2029 14.7644C23.7755 14.3244 23.1957 14.0773 22.5913 14.0773ZM18.9446 19.7081C18.3401 19.7081 17.7604 19.9553 17.333 20.3953C16.9055 20.8353 16.6654 21.4321 16.6654 22.0543C16.6654 22.6766 16.9055 23.2734 17.333 23.7134C17.7604 24.1534 18.3401 24.4006 18.9446 24.4006C19.5491 24.4006 20.1288 24.1534 20.5562 23.7134C20.9836 23.2734 21.2238 22.6766 21.2238 22.0543C21.2238 21.4321 20.9836 20.8353 20.5562 20.3953C20.1288 19.9553 19.5491 19.7081 18.9446 19.7081ZM23.9588 22.0543C23.9588 21.4321 24.1989 20.8353 24.6263 20.3953C25.0538 19.9553 25.6335 19.7081 26.2379 19.7081C26.8424 19.7081 27.4221 19.9553 27.8496 20.3953C28.277 20.8353 28.5171 21.4321 28.5171 22.0543C28.5171 22.6766 28.277 23.2734 27.8496 23.7134C27.4221 24.1534 26.8424 24.4006 26.2379 24.4006C25.6335 24.4006 25.0538 24.1534 24.6263 23.7134C24.1989 23.2734 23.9588 22.6766 23.9588 22.0543ZM22.5913 25.339C21.9868 25.339 21.4071 25.5862 20.9796 26.0262C20.5522 26.4662 20.3121 27.063 20.3121 27.6852C20.3121 28.3075 20.5522 28.9043 20.9796 29.3443C21.4071 29.7843 21.9868 30.0314 22.5913 30.0314C23.1957 30.0314 23.7755 29.7843 24.2029 29.3443C24.6303 28.9043 24.8704 28.3075 24.8704 27.6852C24.8704 27.063 24.6303 26.4662 24.2029 26.0262C23.7755 25.5862 23.1957 25.339 22.5913 25.339ZM0.515137 0.000976562H1.54806C4.13721 0.000976562 6.57502 1.19942 8.3546 2.79014C8.93322 3.30516 9.45758 3.88143 9.91903 4.50944V2.40818C9.91903 2.15928 10.0151 1.92057 10.1861 1.74457C10.357 1.56857 10.5889 1.4697 10.8307 1.4697C11.0725 1.4697 11.3044 1.56857 11.4753 1.74457C11.6463 1.92057 11.7424 2.15928 11.7424 2.40818V8.60216C11.7426 8.74394 11.7115 8.88391 11.6515 9.01153C11.5915 9.13914 11.5041 9.25107 11.3959 9.33886V9.38485H11.3339C11.1845 9.48726 11.009 9.54175 10.8295 9.54141C10.65 9.54108 10.4747 9.48594 10.3256 9.38297C8.10115 9.34168 5.86574 8.45106 4.10621 7.02175C2.30475 5.55772 0.93724 3.47429 0.643682 1.05489L0.515137 0.000976562ZM9.40029 7.42436C9.07756 6.40048 8.30993 5.23582 7.1594 4.20725C5.91952 3.09984 4.35145 2.25615 2.70679 1.97742C3.14713 3.34948 4.04969 4.58546 5.23577 5.54928C6.45103 6.53562 7.92247 7.20007 9.40029 7.42436Z" fill="#4CAF50"/>
<path fill-rule="evenodd" clip-rule="evenodd" d="M28.2326 1.07361L28.3985 2.12283C28.8133 4.75339 28.0548 7.42337 26.8141 9.48615C25.5942 11.5152 23.7745 13.165 21.8774 13.4822L20.9775 13.6324L20.8317 12.707C20.467 10.3937 20.9611 7.91138 22.0752 5.84672C23.1902 3.78206 24.9697 2.05901 27.2416 1.37298L28.2326 1.07361ZM26.6882 3.61689C25.4438 4.28509 24.4027 5.40001 23.6688 6.75893C22.9176 8.15163 22.5146 9.75268 22.5374 11.2918C23.4673 10.7991 24.461 9.83245 25.2633 8.49793C26.1276 7.06206 26.6846 5.33244 26.6892 3.61783" fill="#333333"/>
</svg>
