<svg width="50" height="50" viewBox="0 0 50 50" fill="none" xmlns="http://www.w3.org/2000/svg">
<circle cx="25" cy="25" r="25" fill="#D9D9D9"/>
<path fill-rule="evenodd" clip-rule="evenodd" d="M10.9193 17.1205C12.4586 15.4831 13.9978 14.9372 16.0495 16.0289C17.8974 17.0115 18.9133 17.1093 19.8461 17.1195C20.8185 17.1093 21.876 17.0115 23.8011 16.0289C25.9378 14.9372 27.5403 15.4831 29.1439 17.1205C31.0333 19.0512 31.6169 21.0614 31.8158 22.5797C31.8395 22.7019 31.8593 22.8241 31.8781 22.9463C31.2403 23.1379 30.6695 23.5143 30.2338 24.0307C29.7981 24.547 29.5158 25.1815 29.4207 25.8584C29.3256 26.5353 29.4217 27.226 29.6974 27.8483C29.9732 28.4706 30.417 28.998 30.9759 29.3678L30.8978 29.5745C30.506 29.289 30.0608 29.0905 29.5905 28.9916C29.1203 28.8926 28.6351 28.8954 28.1659 28.9998C27.6968 29.1042 27.2538 29.3079 26.8652 29.5979C26.4765 29.8879 26.1507 30.2579 25.9084 30.6845C25.6661 31.111 25.5127 31.5848 25.4577 32.0757C25.4028 32.5665 25.4476 33.0638 25.5894 33.5359C25.7311 34.008 25.9667 34.4446 26.2811 34.818C26.5955 35.1914 26.9819 35.4934 27.4157 35.7048C27.3263 35.8188 27.235 35.9312 27.1417 36.0419C26.3157 36.9268 25.3759 37.494 24.357 37.3209C21.1519 36.774 20.6177 36.774 20.0835 36.774H19.6186C19.1062 36.774 18.5928 36.774 15.5153 37.3209C13.0521 37.7567 11.0737 33.4991 10.0924 31.3169C8.54916 27.8923 8.24151 24.3923 8.35428 22.5797C8.5452 21.0604 9.10609 19.0512 10.9193 17.1215" fill="#FF9800"/>
<path fill-rule="evenodd" clip-rule="evenodd" d="M38.8464 18.6072C39.9576 19.0176 40.8649 19.8656 41.3687 20.9646C41.8726 22.0636 41.9317 23.3237 41.5331 24.4676C41.5015 24.5582 41.4589 24.6407 41.4075 24.715C42.2145 25.4301 42.746 26.419 42.9057 27.5027C43.0654 28.5864 42.8427 29.6931 42.278 30.6223C42.0003 31.0779 41.647 31.4798 41.2344 31.8097C41.3236 32.7203 41.1447 33.6374 40.721 34.442C41.2723 34.7488 41.7544 35.1719 42.1359 35.6838C42.5174 36.1956 42.7896 36.7846 42.9347 37.4122C43.0798 38.0398 43.0945 38.6918 42.9779 39.3257C42.8613 39.9595 42.616 40.5609 42.2581 41.0905C41.9002 41.62 41.4376 42.0658 40.9008 42.3986C40.364 42.7314 39.7649 42.9439 39.1428 43.0219C38.5207 43.1 37.8896 43.042 37.2908 42.8516C36.692 42.6613 36.139 42.343 35.668 41.9175C34.9157 42.5525 33.9821 42.9163 33.0099 42.9533C32.0377 42.9903 31.0805 42.6984 30.2848 42.1223C29.489 41.5463 28.8985 40.7177 28.6035 39.7634C28.3085 38.8091 28.3253 37.7816 28.6514 36.8381C27.5138 36.7751 26.443 36.2655 25.6594 35.4143C24.8758 34.5631 24.4391 33.435 24.4391 32.2623C24.4391 31.0896 24.8758 29.9615 25.6594 29.1103C26.443 28.2591 27.5138 27.7495 28.6514 27.6865C28.4055 26.974 28.3347 26.2099 28.4453 25.4623C28.5559 24.7148 28.8445 24.007 29.2853 23.4022C29.7262 22.7974 30.3056 22.3142 30.9718 21.9959C31.6381 21.6775 32.3706 21.5338 33.1039 21.5776C33.1138 21.5094 33.1296 21.4401 33.1534 21.3719C33.5523 20.2282 34.3761 19.2945 35.4437 18.776C36.5113 18.2575 37.7353 18.1968 38.8464 18.6072ZM36.8847 40.3045C37.1502 40.5682 37.4697 40.7674 37.8197 40.8875C38.1697 41.0076 38.5413 41.0456 38.9075 40.9987C39.2736 40.9518 39.6248 40.8211 39.9355 40.6163C40.2462 40.4115 40.5085 40.1377 40.703 39.8151C40.8976 39.4924 41.0196 39.129 41.0601 38.7515C41.1005 38.374 41.0584 37.992 40.9368 37.6334C40.8152 37.2748 40.6172 36.9488 40.3574 36.6792C40.0975 36.4096 39.7823 36.2033 39.435 36.0754C39.4013 36.063 39.3682 36.0487 39.336 36.0326C38.6782 36.5011 37.8918 36.7923 37.043 36.8391C37.2082 37.3177 37.2982 37.835 37.2982 38.3727C37.2982 39.0631 37.1498 39.7169 36.8847 40.3045ZM37.043 27.6875C37.7306 27.7251 38.4003 27.9265 38.9994 28.2758C39.5985 28.6252 40.1106 29.113 40.4954 29.7007C40.7298 29.3727 40.8848 28.9918 40.9475 28.5897C41.0204 28.1174 40.9627 27.6335 40.7808 27.1934C40.5989 26.7533 40.3003 26.3748 39.9191 26.1013C39.5379 25.8279 39.0896 25.6705 38.6256 25.6472C38.1615 25.6239 37.7005 25.7356 37.2953 25.9696C37.3183 26.5532 37.2327 27.137 37.043 27.6875ZM36.7631 23.9717C37.6839 23.5698 38.7092 23.4981 39.6743 23.768C39.8922 23.1325 39.8565 22.4341 39.5749 21.8257C39.2933 21.2173 38.7889 20.7487 38.1722 20.5225C37.5556 20.2964 36.8769 20.3311 36.2851 20.6192C35.6933 20.9073 35.2366 21.4251 35.0151 22.0593C35.0065 22.0841 34.9969 22.1086 34.9864 22.1326C35.7376 22.5576 36.3543 23.196 36.7631 23.9717ZM32.8467 23.6071C32.1908 23.6071 31.5618 23.8753 31.098 24.3528C30.6342 24.8302 30.3736 25.4777 30.3736 26.1529C30.3736 26.8281 30.6342 27.4756 31.098 27.9531C31.5618 28.4305 32.1908 28.6987 32.8467 28.6987C33.5026 28.6987 34.1316 28.4305 34.5954 27.9531C35.0592 27.4756 35.3198 26.8281 35.3198 26.1529C35.3198 25.4777 35.0592 24.8302 34.5954 24.3528C34.1316 23.8753 33.5026 23.6071 32.8467 23.6071ZM28.8898 29.717C28.2339 29.717 27.6049 29.9852 27.1411 30.4627C26.6773 30.9401 26.4167 31.5876 26.4167 32.2628C26.4167 32.938 26.6773 33.5855 27.1411 34.063C27.6049 34.5404 28.2339 34.8086 28.8898 34.8086C29.5457 34.8086 30.1747 34.5404 30.6385 34.063C31.1023 33.5855 31.3629 32.938 31.3629 32.2628C31.3629 31.5876 31.1023 30.9401 30.6385 30.4627C30.1747 29.9852 29.5457 29.717 28.8898 29.717ZM34.3305 32.2628C34.3305 31.5876 34.5911 30.9401 35.0549 30.4627C35.5187 29.9852 36.1477 29.717 36.8036 29.717C37.4595 29.717 38.0885 29.9852 38.5523 30.4627C39.0161 30.9401 39.2767 31.5876 39.2767 32.2628C39.2767 32.938 39.0161 33.5855 38.5523 34.063C38.0885 34.5404 37.4595 34.8086 36.8036 34.8086C36.1477 34.8086 35.5187 34.5404 35.0549 34.063C34.5911 33.5855 34.3305 32.938 34.3305 32.2628ZM32.8467 35.8269C32.1908 35.8269 31.5618 36.0951 31.098 36.5726C30.6342 37.05 30.3736 37.6975 30.3736 38.3727C30.3736 39.0479 30.6342 39.6954 31.098 40.1729C31.5618 40.6503 32.1908 40.9185 32.8467 40.9185C33.5026 40.9185 34.1316 40.6503 34.5954 40.1729C35.0592 39.6954 35.3198 39.0479 35.3198 38.3727C35.3198 37.6975 35.0592 37.05 34.5954 36.5726C34.1316 36.0951 33.5026 35.8269 32.8467 35.8269ZM8.89258 8.33337H10.0134C12.8228 8.33337 15.468 9.63376 17.3989 11.3598C18.0268 11.9186 18.5958 12.5439 19.0965 13.2254V10.9454C19.0965 10.6753 19.2007 10.4163 19.3862 10.2253C19.5717 10.0343 19.8233 9.92704 20.0857 9.92704C20.348 9.92704 20.5997 10.0343 20.7852 10.2253C20.9707 10.4163 21.0749 10.6753 21.0749 10.9454V17.6663C21.0751 17.8201 21.0414 17.972 20.9763 18.1104C20.9112 18.2489 20.8163 18.3704 20.699 18.4656V18.5155H20.6317C20.4696 18.6267 20.2791 18.6858 20.0844 18.6854C19.8896 18.685 19.6994 18.6252 19.5376 18.5135C17.1239 18.4687 14.6984 17.5023 12.7891 15.9514C10.8344 14.3628 9.35059 12.1022 9.03206 9.47694L8.89258 8.33337ZM18.5336 16.3883C18.1834 15.2773 17.3505 14.0135 16.1021 12.8975C14.7567 11.6959 13.0552 10.7804 11.2707 10.478C11.7485 11.9667 12.7278 13.3079 14.0148 14.3537C15.3334 15.4239 16.93 16.1449 18.5336 16.3883Z" fill="#4CAF50"/>
<path fill-rule="evenodd" clip-rule="evenodd" d="M38.968 9.49707L39.148 10.6355C39.5981 13.4899 38.7751 16.387 37.4288 18.6253C36.1052 20.8269 34.1307 22.6171 32.0721 22.9613L31.0957 23.1242L30.9375 22.1201C30.5418 19.61 31.0779 16.9165 32.2868 14.6762C33.4966 12.4359 35.4276 10.5663 37.8927 9.82191L38.968 9.49707ZM37.2922 12.2567C35.9419 12.9818 34.8123 14.1915 34.0159 15.666C33.2008 17.1772 32.7636 18.9145 32.7883 20.5845C33.7973 20.0499 34.8756 19.001 35.7461 17.553C36.6839 15.995 37.2883 14.1182 37.2932 12.2577" fill="#333333"/>
</svg>
