<svg width="141" height="50" viewBox="0 0 141 50" fill="none" xmlns="http://www.w3.org/2000/svg">
<circle cx="25" cy="25" r="25" fill="#D9D9D9"/>
<path fill-rule="evenodd" clip-rule="evenodd" d="M10.9193 17.1205C12.4586 15.4831 13.9978 14.9372 16.0495 16.0289C17.8974 17.0115 18.9133 17.1093 19.8461 17.1195C20.8185 17.1093 21.876 17.0115 23.8011 16.0289C25.9378 14.9372 27.5403 15.4831 29.1439 17.1205C31.0333 19.0512 31.6169 21.0614 31.8158 22.5797C31.8395 22.7019 31.8593 22.8241 31.8781 22.9463C31.2403 23.1379 30.6695 23.5143 30.2338 24.0307C29.7981 24.547 29.5158 25.1815 29.4207 25.8584C29.3256 26.5353 29.4217 27.226 29.6974 27.8483C29.9732 28.4706 30.417 28.998 30.9759 29.3678L30.8978 29.5745C30.506 29.289 30.0608 29.0905 29.5905 28.9916C29.1203 28.8926 28.6351 28.8954 28.1659 28.9998C27.6968 29.1042 27.2538 29.3079 26.8652 29.5979C26.4765 29.8879 26.1507 30.2579 25.9084 30.6845C25.6661 31.111 25.5127 31.5848 25.4577 32.0757C25.4028 32.5665 25.4476 33.0638 25.5894 33.5359C25.7311 34.008 25.9667 34.4446 26.2811 34.818C26.5955 35.1914 26.9819 35.4934 27.4157 35.7048C27.3263 35.8188 27.235 35.9312 27.1417 36.0419C26.3157 36.9268 25.3759 37.494 24.357 37.3209C21.1519 36.774 20.6177 36.774 20.0835 36.774H19.6186C19.1062 36.774 18.5928 36.774 15.5153 37.3209C13.0521 37.7567 11.0737 33.4991 10.0924 31.3169C8.54916 27.8923 8.24151 24.3923 8.35428 22.5797C8.5452 21.0604 9.10609 19.0512 10.9193 17.1215" fill="#FF9800"/>
<path fill-rule="evenodd" clip-rule="evenodd" d="M38.8464 18.6072C39.9576 19.0176 40.8649 19.8656 41.3687 20.9646C41.8726 22.0636 41.9317 23.3237 41.5331 24.4676C41.5015 24.5582 41.4589 24.6407 41.4075 24.715C42.2145 25.4301 42.746 26.419 42.9057 27.5027C43.0654 28.5864 42.8427 29.6931 42.278 30.6223C42.0003 31.0779 41.647 31.4798 41.2344 31.8097C41.3236 32.7203 41.1447 33.6374 40.721 34.442C41.2723 34.7488 41.7544 35.1719 42.1359 35.6838C42.5174 36.1956 42.7896 36.7846 42.9347 37.4122C43.0798 38.0398 43.0945 38.6918 42.9779 39.3257C42.8613 39.9595 42.616 40.5609 42.2581 41.0905C41.9002 41.62 41.4376 42.0658 40.9008 42.3986C40.364 42.7314 39.7649 42.9439 39.1428 43.0219C38.5207 43.1 37.8896 43.042 37.2908 42.8516C36.692 42.6613 36.139 42.343 35.668 41.9175C34.9157 42.5525 33.9821 42.9163 33.0099 42.9533C32.0377 42.9903 31.0805 42.6984 30.2848 42.1223C29.489 41.5463 28.8985 40.7177 28.6035 39.7634C28.3085 38.8091 28.3253 37.7816 28.6514 36.8381C27.5138 36.7751 26.443 36.2655 25.6594 35.4143C24.8758 34.5631 24.4391 33.435 24.4391 32.2623C24.4391 31.0896 24.8758 29.9615 25.6594 29.1103C26.443 28.2591 27.5138 27.7495 28.6514 27.6865C28.4055 26.974 28.3347 26.2099 28.4453 25.4623C28.5559 24.7148 28.8445 24.007 29.2853 23.4022C29.7262 22.7974 30.3056 22.3142 30.9718 21.9959C31.6381 21.6775 32.3706 21.5338 33.1039 21.5776C33.1138 21.5094 33.1296 21.4401 33.1534 21.3719C33.5523 20.2282 34.3761 19.2945 35.4437 18.776C36.5113 18.2575 37.7353 18.1968 38.8464 18.6072ZM36.8847 40.3045C37.1502 40.5682 37.4697 40.7674 37.8197 40.8875C38.1697 41.0076 38.5413 41.0456 38.9075 40.9987C39.2736 40.9518 39.6248 40.8211 39.9355 40.6163C40.2462 40.4115 40.5085 40.1377 40.703 39.8151C40.8976 39.4924 41.0196 39.129 41.0601 38.7515C41.1005 38.374 41.0584 37.992 40.9368 37.6334C40.8152 37.2748 40.6172 36.9488 40.3574 36.6792C40.0975 36.4096 39.7823 36.2033 39.435 36.0754C39.4013 36.063 39.3682 36.0487 39.336 36.0326C38.6782 36.5011 37.8918 36.7923 37.043 36.8391C37.2082 37.3177 37.2982 37.835 37.2982 38.3727C37.2982 39.0631 37.1498 39.7169 36.8847 40.3045ZM37.043 27.6875C37.7306 27.7251 38.4003 27.9265 38.9994 28.2758C39.5985 28.6252 40.1106 29.113 40.4954 29.7007C40.7298 29.3727 40.8848 28.9918 40.9475 28.5897C41.0204 28.1174 40.9627 27.6335 40.7808 27.1934C40.5989 26.7533 40.3003 26.3748 39.9191 26.1013C39.5379 25.8279 39.0896 25.6705 38.6256 25.6472C38.1615 25.6239 37.7005 25.7356 37.2953 25.9696C37.3183 26.5532 37.2327 27.137 37.043 27.6875ZM36.7631 23.9717C37.6839 23.5698 38.7092 23.4981 39.6743 23.768C39.8922 23.1325 39.8565 22.4341 39.5749 21.8257C39.2933 21.2173 38.7889 20.7487 38.1722 20.5225C37.5556 20.2964 36.8769 20.3311 36.2851 20.6192C35.6933 20.9073 35.2366 21.4251 35.0151 22.0593C35.0065 22.0841 34.9969 22.1086 34.9864 22.1326C35.7376 22.5576 36.3543 23.196 36.7631 23.9717ZM32.8467 23.6071C32.1908 23.6071 31.5618 23.8753 31.098 24.3528C30.6342 24.8302 30.3736 25.4777 30.3736 26.1529C30.3736 26.8281 30.6342 27.4756 31.098 27.9531C31.5618 28.4305 32.1908 28.6987 32.8467 28.6987C33.5026 28.6987 34.1316 28.4305 34.5954 27.9531C35.0592 27.4756 35.3198 26.8281 35.3198 26.1529C35.3198 25.4777 35.0592 24.8302 34.5954 24.3528C34.1316 23.8753 33.5026 23.6071 32.8467 23.6071ZM28.8898 29.717C28.2339 29.717 27.6049 29.9852 27.1411 30.4627C26.6773 30.9401 26.4167 31.5876 26.4167 32.2628C26.4167 32.938 26.6773 33.5855 27.1411 34.063C27.6049 34.5404 28.2339 34.8086 28.8898 34.8086C29.5457 34.8086 30.1747 34.5404 30.6385 34.063C31.1023 33.5855 31.3629 32.938 31.3629 32.2628C31.3629 31.5876 31.1023 30.9401 30.6385 30.4627C30.1747 29.9852 29.5457 29.717 28.8898 29.717ZM34.3305 32.2628C34.3305 31.5876 34.5911 30.9401 35.0549 30.4627C35.5187 29.9852 36.1477 29.717 36.8036 29.717C37.4595 29.717 38.0885 29.9852 38.5523 30.4627C39.0161 30.9401 39.2767 31.5876 39.2767 32.2628C39.2767 32.938 39.0161 33.5855 38.5523 34.063C38.0885 34.5404 37.4595 34.8086 36.8036 34.8086C36.1477 34.8086 35.5187 34.5404 35.0549 34.063C34.5911 33.5855 34.3305 32.938 34.3305 32.2628ZM32.8467 35.8269C32.1908 35.8269 31.5618 36.0951 31.098 36.5726C30.6342 37.05 30.3736 37.6975 30.3736 38.3727C30.3736 39.0479 30.6342 39.6954 31.098 40.1729C31.5618 40.6503 32.1908 40.9185 32.8467 40.9185C33.5026 40.9185 34.1316 40.6503 34.5954 40.1729C35.0592 39.6954 35.3198 39.0479 35.3198 38.3727C35.3198 37.6975 35.0592 37.05 34.5954 36.5726C34.1316 36.0951 33.5026 35.8269 32.8467 35.8269ZM8.89258 8.33337H10.0134C12.8228 8.33337 15.468 9.63376 17.3989 11.3598C18.0268 11.9186 18.5958 12.5439 19.0965 13.2254V10.9454C19.0965 10.6753 19.2007 10.4163 19.3862 10.2253C19.5717 10.0343 19.8233 9.92704 20.0857 9.92704C20.348 9.92704 20.5997 10.0343 20.7852 10.2253C20.9707 10.4163 21.0749 10.6753 21.0749 10.9454V17.6663C21.0751 17.8201 21.0414 17.972 20.9763 18.1104C20.9112 18.2489 20.8163 18.3704 20.699 18.4656V18.5155H20.6317C20.4696 18.6267 20.2791 18.6858 20.0844 18.6854C19.8896 18.685 19.6994 18.6252 19.5376 18.5135C17.1239 18.4687 14.6984 17.5023 12.7891 15.9514C10.8344 14.3628 9.35059 12.1022 9.03206 9.47694L8.89258 8.33337ZM18.5336 16.3883C18.1834 15.2773 17.3505 14.0135 16.1021 12.8975C14.7567 11.6959 13.0552 10.7804 11.2707 10.478C11.7485 11.9667 12.7278 13.3079 14.0148 14.3537C15.3334 15.4239 16.93 16.1449 18.5336 16.3883Z" fill="#4CAF50"/>
<path fill-rule="evenodd" clip-rule="evenodd" d="M38.968 9.49707L39.148 10.6355C39.5981 13.4899 38.7751 16.387 37.4288 18.6253C36.1052 20.8269 34.1307 22.6171 32.0721 22.9613L31.0957 23.1242L30.9375 22.1201C30.5418 19.61 31.0779 16.9165 32.2868 14.6762C33.4966 12.4359 35.4276 10.5663 37.8927 9.82191L38.968 9.49707ZM37.2922 12.2567C35.9419 12.9818 34.8123 14.1915 34.0159 15.666C33.2008 17.1772 32.7636 18.9145 32.7883 20.5845C33.7973 20.0499 34.8756 19.001 35.7461 17.553C36.6839 15.995 37.2883 14.1182 37.2932 12.2577" fill="#333333"/>
<path d="M58.8281 39.7812V41.0625H56.375V39.7812H56.1094C54.6771 39.7812 53.5391 39.3594 52.6953 38.5156C51.8568 37.6667 51.4375 36.5703 51.4375 35.2266C51.4375 33.9141 51.849 32.8594 52.6719 32.0625C53.5 31.2604 54.6354 30.8594 56.0781 30.8594H56.375V29.5781H58.8281V30.8594H59.1172C60.5703 30.8594 61.7083 31.2578 62.5312 32.0547C63.3594 32.8516 63.7734 33.9089 63.7734 35.2266C63.7734 36.5703 63.3516 37.6667 62.5078 38.5156C61.6641 39.3594 60.5234 39.7812 59.0859 39.7812H58.8281ZM58.8281 32.7422V37.8672H58.9375C59.6354 37.8672 60.1823 37.6328 60.5781 37.1641C60.9792 36.6901 61.1797 36.0651 61.1797 35.2891C61.1797 34.513 60.9792 33.8958 60.5781 33.4375C60.1823 32.974 59.6406 32.7422 58.9531 32.7422H58.8281ZM56.375 37.8672V32.7422H56.2344C55.5573 32.7422 55.0182 32.974 54.6172 33.4375C54.2214 33.901 54.0234 34.5182 54.0234 35.2891C54.0234 36.0703 54.2188 36.6953 54.6094 37.1641C55.0052 37.6328 55.5521 37.8672 56.25 37.8672H56.375ZM67.8516 40.0703H67.8203V44.6797H65.3516V33H67.8203V34.2031H67.8516C68.4609 33.2708 69.3177 32.8047 70.4219 32.8047C71.4583 32.8047 72.2578 33.1615 72.8203 33.875C73.388 34.5833 73.6719 35.5495 73.6719 36.7734C73.6719 38.1068 73.3411 39.1771 72.6797 39.9844C72.0234 40.7917 71.1484 41.1953 70.0547 41.1953C69.0911 41.1953 68.3568 40.8203 67.8516 40.0703ZM67.7812 36.7891V37.4297C67.7812 37.9818 67.9271 38.4323 68.2188 38.7812C68.5104 39.1302 68.8932 39.3047 69.3672 39.3047C69.9297 39.3047 70.3646 39.0885 70.6719 38.6562C70.9844 38.2188 71.1406 37.6016 71.1406 36.8047C71.1406 35.3984 70.5938 34.6953 69.5 34.6953C68.9948 34.6953 68.5807 34.888 68.2578 35.2734C67.9401 35.6536 67.7812 36.1589 67.7812 36.7891ZM82.8906 33L79.6406 41.6406C78.8594 43.7188 77.6823 44.7578 76.1094 44.7578C75.5104 44.7578 75.0182 44.6901 74.6328 44.5547V42.5859C74.9609 42.7786 75.3177 42.875 75.7031 42.875C76.3385 42.875 76.7812 42.5755 77.0312 41.9766L77.4531 40.9844L74.2031 33H76.9375L78.4297 37.8672C78.5234 38.1693 78.5964 38.526 78.6484 38.9375H78.6797C78.7266 38.6354 78.8125 38.2839 78.9375 37.8828L80.4453 33H82.8906ZM91.8672 41H88.9062L86.3828 37.0938H86.3516V41H83.8828V33H86.3516V36.7578H86.3828L88.8438 33H91.7734L88.8281 36.8047L91.8672 41ZM98.8203 34.875H96.6797V41H94.1953V34.875H92.0391V33H98.8203V34.875ZM103.695 41.1953C102.362 41.1953 101.312 40.8229 100.547 40.0781C99.7865 39.3281 99.4062 38.3125 99.4062 37.0312C99.4062 35.7083 99.8021 34.6745 100.594 33.9297C101.385 33.1797 102.456 32.8047 103.805 32.8047C105.133 32.8047 106.174 33.1797 106.93 33.9297C107.685 34.6745 108.062 35.6615 108.062 36.8906C108.062 38.2188 107.672 39.2682 106.891 40.0391C106.115 40.8099 105.049 41.1953 103.695 41.1953ZM103.758 34.6953C103.174 34.6953 102.721 34.8958 102.398 35.2969C102.076 35.6979 101.914 36.2656 101.914 37C101.914 38.5365 102.534 39.3047 103.773 39.3047C104.956 39.3047 105.547 38.5156 105.547 36.9375C105.547 35.4427 104.951 34.6953 103.758 34.6953ZM109.664 41V33H114.133C116.039 33 116.992 33.651 116.992 34.9531C116.992 35.4167 116.841 35.8099 116.539 36.1328C116.242 36.4505 115.854 36.6589 115.375 36.7578C115.964 36.8307 116.424 37.0365 116.758 37.375C117.096 37.7083 117.266 38.1172 117.266 38.6016C117.266 39.3255 117.008 39.9062 116.492 40.3438C115.977 40.7812 115.268 41 114.367 41H109.664ZM112.133 34.5078V36.1875H113.344C114.094 36.1875 114.469 35.8932 114.469 35.3047C114.469 34.7734 114.115 34.5078 113.406 34.5078H112.133ZM112.133 37.6406V39.4609H113.555C114.341 39.4609 114.734 39.1432 114.734 38.5078C114.734 37.9297 114.331 37.6406 113.523 37.6406H112.133ZM129.906 41H127.43V33H129.906V41ZM118.945 41V33H121.414V35.7969H123.523C124.43 35.7969 125.135 36.0182 125.641 36.4609C126.146 36.8984 126.398 37.5156 126.398 38.3125C126.398 39.1302 126.148 39.7839 125.648 40.2734C125.148 40.7578 124.456 41 123.57 41H118.945ZM121.414 37.3516V39.4297H122.609C123.443 39.4297 123.859 39.0729 123.859 38.3594C123.859 37.6875 123.453 37.3516 122.641 37.3516H121.414ZM139.945 41H137.703V35.7656C137.5 36.1771 137.281 36.5573 137.047 36.9062L134.328 41H131.992V33H134.25V38.0703C134.417 37.7214 134.599 37.3958 134.797 37.0938L137.516 33H139.945V41ZM139.367 29.1797C139.273 30.0078 138.917 30.6667 138.297 31.1562C137.677 31.6458 136.909 31.8906 135.992 31.8906C135.06 31.8906 134.284 31.6458 133.664 31.1562C133.044 30.6667 132.711 30.0078 132.664 29.1797H134.461C134.487 29.5807 134.651 29.9115 134.953 30.1719C135.255 30.4271 135.612 30.5547 136.023 30.5547C136.43 30.5547 136.781 30.4245 137.078 30.1641C137.375 29.9036 137.539 29.5755 137.57 29.1797H139.367Z" fill="white"/>
<path d="M97.1641 20.1406V24H94.6406V12.7969H98.5938C101.417 12.7969 102.828 13.987 102.828 16.3672C102.828 17.4922 102.422 18.4036 101.609 19.1016C100.802 19.7943 99.7214 20.1406 98.3672 20.1406H97.1641ZM97.1641 14.7344V18.2266H98.1562C99.5 18.2266 100.172 17.638 100.172 16.4609C100.172 15.3099 99.5 14.7344 98.1562 14.7344H97.1641ZM110.461 24H108.125V22.8516H108.094C107.557 23.7474 106.763 24.1953 105.711 24.1953C104.935 24.1953 104.323 23.9766 103.875 23.5391C103.432 23.0964 103.211 22.5078 103.211 21.7734C103.211 20.2214 104.13 19.3255 105.969 19.0859L108.141 18.7969C108.141 17.9219 107.667 17.4844 106.719 17.4844C105.766 17.4844 104.859 17.7682 104 18.3359V16.4766C104.344 16.2995 104.812 16.1432 105.406 16.0078C106.005 15.8724 106.549 15.8047 107.039 15.8047C109.32 15.8047 110.461 16.9427 110.461 19.2188V24ZM108.141 20.75V20.2109L106.688 20.3984C105.885 20.5026 105.484 20.8646 105.484 21.4844C105.484 21.7656 105.581 21.9974 105.773 22.1797C105.971 22.3568 106.237 22.4453 106.57 22.4453C107.034 22.4453 107.411 22.2865 107.703 21.9688C107.995 21.6458 108.141 21.2396 108.141 20.75ZM120.367 24H118.125V18.7656C117.922 19.1771 117.703 19.5573 117.469 19.9062L114.75 24H112.414V16H114.672V21.0703C114.839 20.7214 115.021 20.3958 115.219 20.0938L117.938 16H120.367V24ZM119.789 12.1797C119.695 13.0078 119.339 13.6667 118.719 14.1562C118.099 14.6458 117.331 14.8906 116.414 14.8906C115.482 14.8906 114.706 14.6458 114.086 14.1562C113.466 13.6667 113.133 13.0078 113.086 12.1797H114.883C114.909 12.5807 115.073 12.9115 115.375 13.1719C115.677 13.4271 116.034 13.5547 116.445 13.5547C116.852 13.5547 117.203 13.4245 117.5 13.1641C117.797 12.9036 117.961 12.5755 117.992 12.1797H119.789ZM126.273 24.1953C124.94 24.1953 123.891 23.8229 123.125 23.0781C122.365 22.3281 121.984 21.3125 121.984 20.0312C121.984 18.7083 122.38 17.6745 123.172 16.9297C123.964 16.1797 125.034 15.8047 126.383 15.8047C127.711 15.8047 128.753 16.1797 129.508 16.9297C130.263 17.6745 130.641 18.6615 130.641 19.8906C130.641 21.2188 130.25 22.2682 129.469 23.0391C128.693 23.8099 127.628 24.1953 126.273 24.1953ZM126.336 17.6953C125.753 17.6953 125.299 17.8958 124.977 18.2969C124.654 18.6979 124.492 19.2656 124.492 20C124.492 21.5365 125.112 22.3047 126.352 22.3047C127.534 22.3047 128.125 21.5156 128.125 19.9375C128.125 18.4427 127.529 17.6953 126.336 17.6953ZM139.953 24H137.477V20.6562H134.711V24H132.242V16H134.711V18.9609H137.477V16H139.953V24Z" fill="white"/>
</svg>
