<svg viewBox="0 0 1657 1655" fill="none" xmlns="http://www.w3.org/2000/svg">
    <path fill-rule="evenodd" clip-rule="evenodd"
          d="M521.919 1021.12C523.459 1019.48 524.998 1018.94 527.049 1020.03C528.897 1021.01 529.913 1021.11 530.846 1021.12C531.819 1021.11 532.876 1021.01 534.801 1020.03C536.938 1018.94 538.54 1019.48 540.144 1021.12C542.033 1023.05 542.617 1025.06 542.816 1026.58C542.84 1026.7 542.859 1026.82 542.878 1026.95C542.24 1027.14 541.669 1027.51 541.234 1028.03C540.798 1028.55 540.516 1029.18 540.421 1029.86C540.326 1030.54 540.422 1031.23 540.697 1031.85C540.973 1032.47 541.417 1033 541.976 1033.37L541.898 1033.57C541.506 1033.29 541.061 1033.09 540.591 1032.99C540.12 1032.89 539.635 1032.9 539.166 1033C538.697 1033.1 538.254 1033.31 537.865 1033.6C537.477 1033.89 537.151 1034.26 536.908 1034.68C536.666 1035.11 536.513 1035.58 536.458 1036.08C536.403 1036.57 536.448 1037.06 536.589 1037.54C536.731 1038.01 536.967 1038.44 537.281 1038.82C537.595 1039.19 537.982 1039.49 538.416 1039.7C538.326 1039.82 538.235 1039.93 538.142 1040.04C537.316 1040.93 536.376 1041.49 535.357 1041.32C532.152 1040.77 531.618 1040.77 531.084 1040.77H530.619C530.106 1040.77 529.593 1040.77 526.515 1041.32C524.052 1041.76 522.074 1037.5 521.092 1035.32C519.549 1031.89 519.242 1028.39 519.354 1026.58C519.545 1025.06 520.106 1023.05 521.919 1021.12"
          fill="currentColor"/>
    <path fill-rule="evenodd" clip-rule="evenodd"
          d="M549.846 1022.61C550.958 1023.02 551.865 1023.87 552.369 1024.96C552.873 1026.06 552.932 1027.32 552.533 1028.47C552.501 1028.56 552.459 1028.64 552.407 1028.72C553.214 1029.43 553.746 1030.42 553.906 1031.5C554.065 1032.59 553.843 1033.69 553.278 1034.62C553 1035.08 552.647 1035.48 552.234 1035.81C552.324 1036.72 552.145 1037.64 551.721 1038.44C552.272 1038.75 552.754 1039.17 553.136 1039.68C553.517 1040.2 553.79 1040.78 553.935 1041.41C554.08 1042.04 554.095 1042.69 553.978 1043.33C553.861 1043.96 553.616 1044.56 553.258 1045.09C552.9 1045.62 552.438 1046.07 551.901 1046.4C551.364 1046.73 550.765 1046.94 550.143 1047.02C549.521 1047.1 548.89 1047.04 548.291 1046.85C547.692 1046.66 547.139 1046.34 546.668 1045.92C545.916 1046.55 544.982 1046.92 544.01 1046.95C543.038 1046.99 542.081 1046.7 541.285 1046.12C540.489 1045.55 539.898 1044.72 539.603 1043.76C539.309 1042.81 539.325 1041.78 539.651 1040.84C538.514 1040.78 537.443 1040.27 536.659 1039.41C535.876 1038.56 535.439 1037.44 535.439 1036.26C535.439 1035.09 535.876 1033.96 536.659 1033.11C537.443 1032.26 538.514 1031.75 539.651 1031.69C539.405 1030.97 539.335 1030.21 539.445 1029.46C539.556 1028.71 539.844 1028.01 540.285 1027.4C540.726 1026.8 541.306 1026.31 541.972 1026C542.638 1025.68 543.371 1025.53 544.104 1025.58C544.114 1025.51 544.13 1025.44 544.153 1025.37C544.552 1024.23 545.376 1023.29 546.444 1022.78C547.511 1022.26 548.735 1022.2 549.846 1022.61ZM547.885 1044.3C548.15 1044.57 548.47 1044.77 548.82 1044.89C549.17 1045.01 549.541 1045.05 549.907 1045C550.274 1044.95 550.625 1044.82 550.936 1044.62C551.246 1044.41 551.508 1044.14 551.703 1043.82C551.898 1043.49 552.02 1043.13 552.06 1042.75C552.1 1042.37 552.058 1041.99 551.937 1041.63C551.815 1041.27 551.617 1040.95 551.357 1040.68C551.097 1040.41 550.782 1040.2 550.435 1040.08C550.401 1040.06 550.368 1040.05 550.336 1040.03C549.678 1040.5 548.892 1040.79 548.043 1040.84C548.208 1041.32 548.298 1041.84 548.298 1042.37C548.298 1043.06 548.15 1043.72 547.885 1044.3ZM548.043 1031.69C548.731 1031.73 549.4 1031.93 549.999 1032.28C550.598 1032.63 551.111 1033.11 551.495 1033.7C551.73 1033.37 551.885 1032.99 551.947 1032.59C552.02 1032.12 551.963 1031.63 551.781 1031.19C551.599 1030.75 551.3 1030.37 550.919 1030.1C550.538 1029.83 550.09 1029.67 549.626 1029.65C549.162 1029.62 548.7 1029.74 548.295 1029.97C548.318 1030.55 548.233 1031.14 548.043 1031.69ZM547.763 1027.97C548.684 1027.57 549.709 1027.5 550.674 1027.77C550.892 1027.13 550.856 1026.43 550.575 1025.83C550.293 1025.22 549.789 1024.75 549.172 1024.52C548.556 1024.3 547.877 1024.33 547.285 1024.62C546.693 1024.91 546.237 1025.43 546.015 1026.06C546.006 1026.08 545.997 1026.11 545.986 1026.13C546.738 1026.56 547.354 1027.2 547.763 1027.97ZM543.847 1027.61C543.191 1027.61 542.562 1027.88 542.098 1028.35C541.634 1028.83 541.374 1029.48 541.374 1030.15C541.374 1030.83 541.634 1031.48 542.098 1031.95C542.562 1032.43 543.191 1032.7 543.847 1032.7C544.503 1032.7 545.132 1032.43 545.595 1031.95C546.059 1031.48 546.32 1030.83 546.32 1030.15C546.32 1029.48 546.059 1028.83 545.595 1028.35C545.132 1027.88 544.503 1027.61 543.847 1027.61ZM539.89 1033.72C539.234 1033.72 538.605 1033.99 538.141 1034.46C537.677 1034.94 537.417 1035.59 537.417 1036.26C537.417 1036.94 537.677 1037.59 538.141 1038.06C538.605 1038.54 539.234 1038.81 539.89 1038.81C540.546 1038.81 541.175 1038.54 541.639 1038.06C542.102 1037.59 542.363 1036.94 542.363 1036.26C542.363 1035.59 542.102 1034.94 541.639 1034.46C541.175 1033.99 540.546 1033.72 539.89 1033.72ZM545.331 1036.26C545.331 1035.59 545.591 1034.94 546.055 1034.46C546.519 1033.99 547.148 1033.72 547.804 1033.72C548.46 1033.72 549.089 1033.99 549.552 1034.46C550.016 1034.94 550.277 1035.59 550.277 1036.26C550.277 1036.94 550.016 1037.59 549.552 1038.06C549.089 1038.54 548.46 1038.81 547.804 1038.81C547.148 1038.81 546.519 1038.54 546.055 1038.06C545.591 1037.59 545.331 1036.94 545.331 1036.26ZM543.847 1039.83C543.191 1039.83 542.562 1040.1 542.098 1040.57C541.634 1041.05 541.374 1041.7 541.374 1042.37C541.374 1043.05 541.634 1043.7 542.098 1044.17C542.562 1044.65 543.191 1044.92 543.847 1044.92C544.503 1044.92 545.132 1044.65 545.595 1044.17C546.059 1043.7 546.32 1043.05 546.32 1042.37C546.32 1041.7 546.059 1041.05 545.595 1040.57C545.132 1040.1 544.503 1039.83 543.847 1039.83ZM519.893 1012.33H521.013C523.823 1012.33 526.468 1013.63 528.399 1015.36C529.027 1015.92 529.596 1016.54 530.096 1017.23V1014.95C530.096 1014.68 530.201 1014.42 530.386 1014.23C530.572 1014.03 530.823 1013.93 531.086 1013.93C531.348 1013.93 531.6 1014.03 531.785 1014.23C531.971 1014.42 532.075 1014.68 532.075 1014.95V1021.67C532.075 1021.82 532.041 1021.97 531.976 1022.11C531.911 1022.25 531.816 1022.37 531.699 1022.47V1022.52H531.632C531.47 1022.63 531.279 1022.69 531.084 1022.69C530.89 1022.69 530.699 1022.63 530.538 1022.51C528.124 1022.47 525.698 1021.5 523.789 1019.95C521.834 1018.36 520.351 1016.1 520.032 1013.48L519.893 1012.33ZM529.534 1020.39C529.183 1019.28 528.35 1018.01 527.102 1016.9C525.757 1015.7 524.055 1014.78 522.271 1014.48C522.748 1015.97 523.728 1017.31 525.015 1018.35C526.333 1019.42 527.93 1020.14 529.534 1020.39Z"
          fill="currentColor"/>
    <path fill-rule="evenodd" clip-rule="evenodd"
          d="M549.968 1013.5L550.148 1014.64C550.598 1017.49 549.775 1020.39 548.429 1022.63C547.105 1024.83 545.131 1026.62 543.072 1026.96L542.096 1027.12L541.937 1026.12C541.542 1023.61 542.078 1020.92 543.287 1018.68C544.497 1016.44 546.428 1014.57 548.893 1013.82L549.968 1013.5ZM548.292 1016.26C546.942 1016.98 545.812 1018.19 545.016 1019.67C544.201 1021.18 543.764 1022.91 543.788 1024.58C544.797 1024.05 545.876 1023 546.746 1021.55C547.684 1019.99 548.288 1018.12 548.293 1016.26"
          fill="currentColor"/>
    <path d="M569.828 1043.78V1045.06H567.375V1043.78H567.109C565.677 1043.78 564.539 1043.36 563.695 1042.52C562.857 1041.67 562.438 1040.57 562.438 1039.23C562.438 1037.91 562.849 1036.86 563.672 1036.06C564.5 1035.26 565.635 1034.86 567.078 1034.86H567.375V1033.58H569.828V1034.86H570.117C571.57 1034.86 572.708 1035.26 573.531 1036.05C574.359 1036.85 574.773 1037.91 574.773 1039.23C574.773 1040.57 574.352 1041.67 573.508 1042.52C572.664 1033.36 571.523 1043.78 570.086 1043.78H569.828ZM569.828 1036.74V1041.87H569.938C570.635 1041.87 571.182 1041.63 571.578 1041.16C571.979 1040.69 572.18 1040.07 572.18 1039.29C572.18 1038.51 571.979 1037.9 571.578 1037.44C571.182 1036.97 570.641 1036.74 569.953 1036.74H569.828ZM567.375 1041.87V1036.74H567.234C566.557 1036.74 566.018 1036.97 565.617 1037.44C565.221 1037.9 565.023 1038.52 565.023 1039.29C565.023 1040.07 565.219 1040.7 565.609 1041.16C566.005 1041.63 566.552 1041.87 567.25 1041.87H567.375ZM578.852 1044.07H578.82V1048.68H576.352V1037H578.82V1038.2H578.852C579.461 1037.27 580.318 1036.8 581.422 1036.8C582.458 1036.8 583.258 1037.16 583.82 1037.88C584.388 1038.58 584.672 1039.55 584.672 1040.77C584.672 1042.11 584.341 1043.18 583.68 1043.98C583.023 1044.79 582.148 1045.2 581.055 1045.2C580.091 1045.2 579.357 1044.82 578.852 1044.07ZM578.781 1040.79V1041.43C578.781 1041.98 578.927 1042.43 579.219 1042.78C579.51 1043.13 579.893 1043.3 580.367 1043.3C580.93 1043.3 581.365 1043.09 581.672 1042.66C581.984 1042.22 582.141 1041.6 582.141 1040.8C582.141 1039.4 581.594 1038.7 580.5 1038.7C579.995 1038.7 579.581 1038.89 579.258 1039.27C578.94 1039.65 578.781 1040.16 578.781 1040.79ZM593.891 1037L590.641 1045.64C589.859 1047.72 588.682 1048.76 587.109 1048.76C586.51 1048.76 586.018 1048.69 585.633 1048.55V1046.59C585.961 1046.78 586.318 1046.88 586.703 1046.88C587.339 1046.88 587.781 1046.58 588.031 1045.98L588.453 1044.98L585.203 1037H587.938L589.43 1041.87C589.523 1042.17 589.596 1042.53 589.648 1042.94H589.68C589.727 1042.64 589.812 1042.28 589.938 1041.88L591.445 1037H593.891ZM602.867 1045H599.906L597.383 1041.09H597.352V1045H594.883V1037H597.352V1040.76H597.383L599.844 1037H602.773L599.828 1040.8L602.867 1045ZM609.82 1038.88H607.68V1045H605.195V1038.88H603.039V1037H609.82V1038.88ZM614.695 1045.2C613.362 1045.2 612.312 1044.82 611.547 1044.08C610.786 1043.33 610.406 1042.31 610.406 1041.03C610.406 1039.71 610.802 1038.67 611.594 1037.93C612.385 1037.18 613.456 1036.8 614.805 1036.8C616.133 1036.8 617.174 1037.18 617.93 1037.93C618.685 1038.67 619.062 1039.66 619.062 1040.89C619.062 1042.22 618.672 1043.27 617.891 1044.04C617.115 1044.81 616.049 1045.2 614.695 1045.2ZM614.758 1038.7C614.174 1038.7 613.721 1038.9 613.398 1039.3C613.076 1039.7 612.914 1040.27 612.914 1041C612.914 1042.54 613.534 1043.3 614.773 1043.3C615.956 1043.3 616.547 1042.52 616.547 1040.94C616.547 1039.44 615.951 1038.7 614.758 1038.7ZM620.664 1045V1037H625.133C627.039 1037 627.992 1037.65 627.992 1038.95C627.992 1039.42 627.841 1039.81 627.539 1040.13C627.242 1040.45 626.854 1040.66 626.375 1040.76C626.964 1040.83 627.424 1041.04 627.758 1041.38C628.096 1041.71 628.266 1042.12 628.266 1042.6C628.266 1043.33 628.008 1043.91 627.492 1044.34C626.977 1044.78 626.268 1045 625.367 1045H620.664ZM623.133 1038.51V1040.19H624.344C625.094 1040.19 625.469 1039.89 625.469 1039.3C625.469 1038.77 625.115 1038.51 624.406 1038.51H623.133ZM623.133 1041.64V1043.46H624.555C625.341 1043.46 625.734 1043.14 625.734 1042.51C625.734 1041.93 625.331 1041.64 624.523 1041.64H623.133ZM640.906 1045H638.43V1037H640.906V1045ZM629.945 1045V1037H632.414V1039.8H634.523C635.43 1039.8 636.135 1040.02 636.641 1040.46C637.146 1040.9 637.398 1041.52 637.398 1042.31C637.398 1043.13 637.148 1043.78 636.648 1044.27C636.148 1044.76 635.456 1045 634.57 1045H629.945ZM632.414 1041.35V1043.43H633.609C634.443 1043.43 634.859 1043.07 634.859 1042.36C634.859 1041.69 634.453 1041.35 633.641 1041.35H632.414ZM650.945 1045H648.703V1039.77C648.5 1040.18 648.281 1040.56 648.047 1040.91L645.328 1045H642.992V1037H645.25V1042.07C645.417 1041.72 645.599 1041.4 645.797 1041.09L648.516 1037H650.945V1045ZM650.367 1033.18C650.273 1034.01 649.917 1034.67 649.297 1035.16C648.677 1035.65 647.909 1035.89 646.992 1035.89C646.06 1035.89 645.284 1035.65 644.664 1035.16C644.044 1034.67 643.711 1034.01 643.664 1033.18H645.461C645.487 1033.58 645.651 1033.91 645.953 1034.17C646.255 1034.43 646.612 1034.55 647.023 1034.55C647.43 1034.55 647.781 1034.42 648.078 1034.16C648.375 1033.9 648.539 1033.58 648.57 1033.18H650.367Z"
          fill="currentColor"/>
    <path d="M608.164 1024.14V1028H605.641V1016.8H609.594C612.417 1016.8 613.828 1017.99 613.828 1020.37C613.828 1021.49 613.422 1022.4 612.609 1023.1C611.802 1023.79 610.721 1024.14 609.367 1024.14H608.164ZM608.164 1018.73V1022.23H609.156C610.5 1022.23 611.172 1021.64 611.172 1020.46C611.172 1019.31 610.5 1018.73 609.156 1018.73H608.164ZM621.461 1028H619.125V1026.85H619.094C618.557 1027.75 617.763 1028.2 616.711 1028.2C615.935 1028.2 615.323 1027.98 614.875 1027.54C614.432 1027.1 614.211 1026.51 614.211 1025.77C614.211 1024.22 615.13 1023.33 616.969 1023.09L619.141 1022.8C619.141 1021.92 618.667 1021.48 617.719 1021.48C616.766 1021.48 615.859 1021.77 615 1022.34V1020.48C615.344 1020.3 615.812 1020.14 616.406 1020.01C617.005 1019.87 617.549 1019.8 618.039 1019.8C620.32 1019.8 621.461 1020.94 621.461 1023.22V1028ZM619.141 1024.75V1024.21L617.688 1024.4C616.885 1024.5 616.484 1024.86 616.484 1025.48C616.484 1025.77 616.581 1026 616.773 1026.18C616.971 1026.36 617.237 1026.45 617.57 1026.45C618.034 1026.45 618.411 1026.29 618.703 1025.97C618.995 1025.65 619.141 1024.75ZM631.367 1028H629.125V1022.77C628.922 1023.18 628.703 1023.56 628.469 1023.91L625.75 1028H623.414V1020H625.672V1025.07C625.839 1024.72 626.021 1024.4 626.219 1024.09L628.938 1020H631.367V1028ZM630.789 1016.18C630.695 1017.01 630.339 1017.67 629.719 1018.16C629.099 1018.65 628.331 1018.89 627.414 1018.89C626.482 1018.89 625.706 1018.65 625.086 1018.16C624.466 1017.67 624.133 1017.01 624.086 1016.18H625.883C625.909 1016.58 626.073 1016.91 626.375 1017.17C626.677 1017.43 627.034 1017.55 627.445 1017.55C627.852 1017.55 628.203 1017.42 628.5 1017.16C628.797 1016.9 628.961 1016.58 628.992 1016.18H630.789ZM637.273 1028.2C635.94 1028.2 634.891 1027.82 634.125 1027.08C633.365 1026.33 632.984 1025.31 632.984 1024.03C632.984 1022.71 633.38 1021.67 634.172 1020.93C634.964 1020.18 636.034 1019.8 637.383 1019.8C638.711 1019.8 639.753 1020.18 640.508 1020.93C641.263 1021.67 641.641 1022.66 641.641 1023.89C641.641 1025.22 641.25 1026.27 640.469 1027.04C639.693 1027.81 638.628 1028.2 637.273 1028.2ZM637.336 1021.7C636.753 1021.7 636.299 1021.9 635.977 1022.3C635.654 1022.7 635.492 1023.27 635.492 1024C635.492 1025.54 636.112 1026.3 637.352 1026.3C638.534 1026.3 639.125 1025.52 639.125 1023.94C639.125 1022.44 638.529 1021.7 637.336 1021.7ZM650.953 1028H648.477V1024.66H645.711V1028H643.242V1020H645.711V1022.96H648.477V1020H650.953V1028Z"
          fill="currentColor"/>
</svg>
