<svg width="150" height="50" viewBox="0 0 150 50" fill="none" xmlns="http://www.w3.org/2000/svg">
<path d="M25 50C38.8071 50 50 38.8071 50 25C50 11.1929 38.8071 0 25 0C11.1929 0 0 11.1929 0 25C0 38.8071 11.1929 50 25 50Z" fill="#D9D9D9"/>
<path fill-rule="evenodd" clip-rule="evenodd" d="M10.9195 17.1205C12.4588 15.4831 13.998 14.9372 16.0497 16.0289C17.8976 17.0115 18.9135 17.1093 19.8463 17.1195C20.8187 17.1093 21.8762 17.0115 23.8013 16.0289C25.938 14.9372 27.5405 15.4831 29.1441 17.1205C31.0335 19.0512 31.6171 21.0614 31.816 22.5797C31.8397 22.7019 31.8595 22.8241 31.8783 22.9463C31.2405 23.1379 30.6697 23.5143 30.234 24.0307C29.7983 24.547 29.516 25.1815 29.4209 25.8584C29.3258 26.5353 29.4219 27.226 29.6976 27.8483C29.9734 28.4706 30.4172 28.998 30.9761 29.3678L30.898 29.5745C30.5062 29.289 30.061 29.0905 29.5907 28.9916C29.1205 28.8926 28.6353 28.8954 28.1661 28.9998C27.697 29.1042 27.254 29.3079 26.8654 29.5979C26.4767 29.8879 26.1509 30.2579 25.9086 30.6845C25.6663 31.111 25.5129 31.5848 25.4579 32.0757C25.403 32.5665 25.4478 33.0638 25.5896 33.5359C25.7313 34.008 25.9669 34.4446 26.2813 34.818C26.5957 35.1914 26.9821 35.4934 27.4159 35.7048C27.3265 35.8188 27.2352 35.9312 27.1419 36.0419C26.3159 36.9268 25.3761 37.494 24.3572 37.3209C21.1521 36.774 20.6179 36.774 20.0837 36.774H19.6188C19.1064 36.774 18.593 36.774 15.5155 37.3209C13.0523 37.7567 11.0739 33.4991 10.0926 31.3169C8.5494 27.8923 8.24175 24.3923 8.35452 22.5797C8.54544 21.0604 9.10633 19.0502 10.9195 17.1205Z" fill="#FF9800"/>
<path fill-rule="evenodd" clip-rule="evenodd" d="M38.9682 9.49707L39.1482 10.6355C39.5983 13.4899 38.7753 16.387 37.429 18.6253C36.1054 20.8269 34.1309 22.6171 32.0723 22.9613L31.0959 23.1242L30.9377 22.1201C30.542 19.61 31.0781 16.9165 32.287 14.6762C33.4968 12.4359 35.4278 10.5663 37.8929 9.82191L38.9682 9.49707ZM37.2924 12.2567C35.9421 12.9818 34.8125 14.1915 34.0161 15.666C33.201 17.1772 32.7638 18.9145 32.7885 20.5845C33.7975 20.0499 34.8758 19.001 35.7463 17.553C36.6841 15.995 37.2885 14.1182 37.2934 12.2577" fill="#333333"/>
<path fill-rule="evenodd" clip-rule="evenodd" d="M38.8464 18.6071C39.9576 19.0175 40.8649 19.8655 41.3687 20.9645C41.8726 22.0635 41.9317 23.3236 41.5331 24.4675C41.5015 24.5581 41.4589 24.6406 41.4075 24.7149C42.2145 25.43 42.746 26.4189 42.9057 27.5026C43.0654 28.5863 42.8427 29.693 42.278 30.6222C42.0003 31.0778 41.647 31.4797 41.2344 31.8096C41.3236 32.7202 41.1447 33.6373 40.721 34.4419C41.2723 34.7487 41.7544 35.1718 42.1359 35.6837C42.5174 36.1955 42.7896 36.7845 42.9347 37.4121C43.0798 38.0397 43.0945 38.6917 42.9779 39.3256C42.8613 39.9594 42.616 40.5608 42.2581 41.0904C41.9002 41.6199 41.4376 42.0657 40.9008 42.3985C40.364 42.7313 39.7649 42.9438 39.1428 43.0218C38.5207 43.0999 37.8896 43.0419 37.2908 42.8515C36.692 42.6612 36.139 42.3429 35.668 41.9174C34.9157 42.5524 33.9821 42.9162 33.0099 42.9532C32.0377 42.9902 31.0805 42.6983 30.2848 42.1222C29.489 41.5462 28.8985 40.7176 28.6035 39.7633C28.3085 38.809 28.3253 37.7815 28.6514 36.838C27.5138 36.775 26.443 36.2654 25.6594 35.4142C24.8758 34.563 24.4391 33.4349 24.4391 32.2622C24.4391 31.0895 24.8758 29.9614 25.6594 29.1102C26.443 28.259 27.5138 27.7494 28.6514 27.6864C28.4055 26.9739 28.3347 26.2098 28.4453 25.4622C28.5559 24.7147 28.8445 24.0069 29.2853 23.4021C29.7262 22.7973 30.3056 22.3141 30.9718 21.9958C31.6381 21.6774 32.3706 21.5337 33.1039 21.5775C33.1138 21.5093 33.1296 21.44 33.1534 21.3718C33.5523 20.2281 34.3761 19.2944 35.4437 18.7759C36.5113 18.2574 37.7353 18.1967 38.8464 18.6071ZM36.8847 40.3044C37.1502 40.5681 37.4697 40.7673 37.8197 40.8874C38.1697 41.0075 38.5413 41.0455 38.9075 40.9986C39.2736 40.9517 39.6248 40.821 39.9355 40.6162C40.2462 40.4114 40.5085 40.1376 40.703 39.815C40.8976 39.4923 41.0196 39.1289 41.0601 38.7514C41.1005 38.3739 41.0584 37.9919 40.9368 37.6333C40.8152 37.2747 40.6172 36.9487 40.3574 36.6791C40.0975 36.4095 39.7823 36.2032 39.435 36.0753C39.4013 36.0629 39.3682 36.0486 39.336 36.0325C38.6782 36.501 37.8918 36.7922 37.043 36.839C37.2082 37.3176 37.2982 37.8349 37.2982 38.3726C37.2982 39.063 37.1498 39.7168 36.8847 40.3044ZM37.043 27.6874C37.7306 27.725 38.4003 27.9264 38.9994 28.2757C39.5985 28.6251 40.1106 29.1129 40.4954 29.7006C40.7298 29.3726 40.8848 28.9917 40.9475 28.5896C41.0204 28.1173 40.9627 27.6334 40.7808 27.1933C40.5989 26.7532 40.3003 26.3747 39.9191 26.1012C39.5379 25.8278 39.0896 25.6704 38.6256 25.6471C38.1615 25.6238 37.7005 25.7355 37.2953 25.9695C37.3183 26.5531 37.2327 27.1369 37.043 27.6874ZM36.7631 23.9716C37.6839 23.5697 38.7092 23.498 39.6743 23.7679C39.8922 23.1324 39.8565 22.434 39.5749 21.8256C39.2933 21.2172 38.7889 20.7486 38.1722 20.5224C37.5556 20.2963 36.8769 20.331 36.2851 20.6191C35.6933 20.9072 35.2366 21.425 35.0151 22.0592C35.0065 22.084 34.9969 22.1085 34.9864 22.1325C35.7376 22.5575 36.3543 23.1959 36.7631 23.9716ZM32.8467 23.607C32.1908 23.607 31.5618 23.8752 31.098 24.3527C30.6342 24.8301 30.3736 25.4776 30.3736 26.1528C30.3736 26.828 30.6342 27.4755 31.098 27.953C31.5618 28.4304 32.1908 28.6986 32.8467 28.6986C33.5026 28.6986 34.1316 28.4304 34.5954 27.953C35.0592 27.4755 35.3198 26.828 35.3198 26.1528C35.3198 25.4776 35.0592 24.8301 34.5954 24.3527C34.1316 23.8752 33.5026 23.607 32.8467 23.607ZM28.8898 29.7169C28.2339 29.7169 27.6049 29.9851 27.1411 30.4626C26.6773 30.94 26.4167 31.5875 26.4167 32.2627C26.4167 32.9379 26.6773 33.5854 27.1411 34.0629C27.6049 34.5403 28.2339 34.8085 28.8898 34.8085C29.5457 34.8085 30.1747 34.5403 30.6385 34.0629C31.1023 33.5854 31.3629 32.9379 31.3629 32.2627C31.3629 31.5875 31.1023 30.94 30.6385 30.4626C30.1747 29.9851 29.5457 29.7169 28.8898 29.7169ZM34.3305 32.2627C34.3305 31.5875 34.5911 30.94 35.0549 30.4626C35.5187 29.9851 36.1477 29.7169 36.8036 29.7169C37.4595 29.7169 38.0885 29.9851 38.5523 30.4626C39.0161 30.94 39.2767 31.5875 39.2767 32.2627C39.2767 32.9379 39.0161 33.5854 38.5523 34.0629C38.0885 34.5403 37.4595 34.8085 36.8036 34.8085C36.1477 34.8085 35.5187 34.5403 35.0549 34.0629C34.5911 33.5854 34.3305 32.9379 34.3305 32.2627ZM32.8467 35.8268C32.1908 35.8268 31.5618 36.095 31.098 36.5725C30.6342 37.0499 30.3736 37.6974 30.3736 38.3726C30.3736 39.0478 30.6342 39.6953 31.098 40.1728C31.5618 40.6502 32.1908 40.9184 32.8467 40.9184C33.5026 40.9184 34.1316 40.6502 34.5954 40.1728C35.0592 39.6953 35.3198 39.0478 35.3198 38.3726C35.3198 37.6974 35.0592 37.0499 34.5954 36.5725C34.1316 36.095 33.5026 35.8268 32.8467 35.8268ZM8.89258 8.33325H10.0134C12.8228 8.33325 15.468 9.63364 17.3989 11.3597C18.0268 11.9185 18.5958 12.5438 19.0965 13.2253V10.9453C19.0965 10.6752 19.2007 10.4162 19.3862 10.2252C19.5717 10.0342 19.8233 9.92692 20.0857 9.92692C20.348 9.92692 20.5997 10.0342 20.7852 10.2252C20.9707 10.4162 21.0749 10.6752 21.0749 10.9453V17.6662C21.0751 17.82 21.0414 17.9719 20.9763 18.1103C20.9112 18.2488 20.8163 18.3703 20.699 18.4655V18.5154H20.6317C20.4696 18.6266 20.2791 18.6857 20.0844 18.6853C19.8896 18.6849 19.6994 18.6251 19.5376 18.5134C17.1239 18.4686 14.6984 17.5022 12.7891 15.9513C10.8344 14.3627 9.35059 12.1021 9.03206 9.47682L8.89258 8.33325ZM18.5336 16.3882C18.1834 15.2772 17.3505 14.0134 16.1021 12.8974C14.7567 11.6958 13.0552 10.7803 11.2707 10.4779C11.7485 11.9666 12.7278 13.3078 14.0148 14.3536C15.3334 15.4238 16.93 16.1448 18.5336 16.3882Z" fill="#4CAF50"/>
<path d="M100.164 20.1406V24H97.6406V12.7969H101.594C104.417 12.7969 105.828 13.987 105.828 16.3672C105.828 17.4922 105.422 18.4036 104.609 19.1016C103.802 19.7943 102.721 20.1406 101.367 20.1406H100.164ZM100.164 14.7344V18.2266H101.156C102.5 18.2266 103.172 17.638 103.172 16.4609C103.172 15.3099 102.5 14.7344 101.156 14.7344H100.164ZM113.461 24H111.125V22.8516H111.094C110.557 23.7474 109.763 24.1953 108.711 24.1953C107.935 24.1953 107.323 23.9766 106.875 23.5391C106.432 23.0964 106.211 22.5078 106.211 21.7734C106.211 20.2214 107.13 19.3255 108.969 19.0859L111.141 18.7969C111.141 17.9219 110.667 17.4844 109.719 17.4844C108.766 17.4844 107.859 17.7682 107 18.3359V16.4766C107.344 16.2995 107.812 16.1432 108.406 16.0078C109.005 15.8724 109.549 15.8047 110.039 15.8047C112.32 15.8047 113.461 16.9427 113.461 19.2188V24ZM111.141 20.75V20.2109L109.688 20.3984C108.885 20.5026 108.484 20.8646 108.484 21.4844C108.484 21.7656 108.581 21.9974 108.773 22.1797C108.971 22.3568 109.237 22.4453 109.57 22.4453C110.034 22.4453 110.411 22.2865 110.703 21.9688C110.995 21.6458 111.141 21.2396 111.141 20.75ZM123.367 24H121.125V18.7656C120.922 19.1771 120.703 19.5573 120.469 19.9062L117.75 24H115.414V16H117.672V21.0703C117.839 20.7214 118.021 20.3958 118.219 20.0938L120.938 16H123.367V24ZM122.789 12.1797C122.695 13.0078 122.339 13.6667 121.719 14.1562C121.099 14.6458 120.331 14.8906 119.414 14.8906C118.482 14.8906 117.706 14.6458 117.086 14.1562C116.466 13.6667 116.133 13.0078 116.086 12.1797H117.883C117.909 12.5807 118.073 12.9115 118.375 13.1719C118.677 13.4271 119.034 13.5547 119.445 13.5547C119.852 13.5547 120.203 13.4245 120.5 13.1641C120.797 12.9036 120.961 12.5755 120.992 12.1797H122.789ZM129.273 24.1953C127.94 24.1953 126.891 23.8229 126.125 23.0781C125.365 22.3281 124.984 21.3125 124.984 20.0312C124.984 18.7083 125.38 17.6745 126.172 16.9297C126.964 16.1797 128.034 15.8047 129.383 15.8047C130.711 15.8047 131.753 16.1797 132.508 16.9297C133.263 17.6745 133.641 18.6615 133.641 19.8906C133.641 21.2188 133.25 22.2682 132.469 23.0391C131.693 23.8099 130.628 24.1953 129.273 24.1953ZM129.336 17.6953C128.753 17.6953 128.299 17.8958 127.977 18.2969C127.654 18.6979 127.492 19.2656 127.492 20C127.492 21.5365 128.112 22.3047 129.352 22.3047C130.534 22.3047 131.125 21.5156 131.125 19.9375C131.125 18.4427 130.529 17.6953 129.336 17.6953ZM142.953 24H140.477V20.6562H137.711V24H135.242V16H137.711V18.9609H140.477V16H142.953V24Z" fill="white"/>
<path d="M61.8281 39.7812V41.0625H59.375V39.7812H59.1094C57.6771 39.7812 56.5391 39.3594 55.6953 38.5156C54.8568 37.6667 54.4375 36.5703 54.4375 35.2266C54.4375 33.9141 54.849 32.8594 55.6719 32.0625C56.5 31.2604 57.6354 30.8594 59.0781 30.8594H59.375V29.5781H61.8281V30.8594H62.1172C63.5703 30.8594 64.7083 31.2578 65.5312 32.0547C66.3594 32.8516 66.7734 33.9089 66.7734 35.2266C66.7734 36.5703 66.3516 37.6667 65.5078 38.5156C64.6641 39.3594 63.5234 39.7812 62.0859 39.7812H61.8281ZM61.8281 32.7422V37.8672H61.9375C62.6354 37.8672 63.1823 37.6328 63.5781 37.1641C63.9792 36.6901 64.1797 36.0651 64.1797 35.2891C64.1797 34.513 63.9792 33.8958 63.5781 33.4375C63.1823 32.974 62.6406 32.7422 61.9531 32.7422H61.8281ZM59.375 37.8672V32.7422H59.2344C58.5573 32.7422 58.0182 32.974 57.6172 33.4375C57.2214 33.901 57.0234 34.5182 57.0234 35.2891C57.0234 36.0703 57.2188 36.6953 57.6094 37.1641C58.0052 37.6328 58.5521 37.8672 59.25 37.8672H59.375ZM70.8516 40.0703H70.8203V44.6797H68.3516V33H70.8203V34.2031H70.8516C71.4609 33.2708 72.3177 32.8047 73.4219 32.8047C74.4583 32.8047 75.2578 33.1615 75.8203 33.875C76.388 34.5833 76.6719 35.5495 76.6719 36.7734C76.6719 38.1068 76.3411 39.1771 75.6797 39.9844C75.0234 40.7917 74.1484 41.1953 73.0547 41.1953C72.0911 41.1953 71.3568 40.8203 70.8516 40.0703ZM70.7812 36.7891V37.4297C70.7812 37.9818 70.9271 38.4323 71.2188 38.7812C71.5104 39.1302 71.8932 39.3047 72.3672 39.3047C72.9297 39.3047 73.3646 39.0885 73.6719 38.6562C73.9844 38.2188 74.1406 37.6016 74.1406 36.8047C74.1406 35.3984 73.5938 34.6953 72.5 34.6953C71.9948 34.6953 71.5807 34.888 71.2578 35.2734C70.9401 35.6536 70.7812 36.1589 70.7812 36.7891ZM85.8906 33L82.6406 41.6406C81.8594 43.7188 80.6823 44.7578 79.1094 44.7578C78.5104 44.7578 78.0182 44.6901 77.6328 44.5547V42.5859C77.9609 42.7786 78.3177 42.875 78.7031 42.875C79.3385 42.875 79.7812 42.5755 80.0312 41.9766L80.4531 40.9844L77.2031 33H79.9375L81.4297 37.8672C81.5234 38.1693 81.5964 38.526 81.6484 38.9375H81.6797C81.7266 38.6354 81.8125 38.2839 81.9375 37.8828L83.4453 33H85.8906ZM94.8672 41H91.9062L89.3828 37.0938H89.3516V41H86.8828V33H89.3516V36.7578H89.3828L91.8438 33H94.7734L91.8281 36.8047L94.8672 41ZM101.82 34.875H99.6797V41H97.1953V34.875H95.0391V33H101.82V34.875ZM106.695 41.1953C105.362 41.1953 104.312 40.8229 103.547 40.0781C102.786 39.3281 102.406 38.3125 102.406 37.0312C102.406 35.7083 102.802 34.6745 103.594 33.9297C104.385 33.1797 105.456 32.8047 106.805 32.8047C108.133 32.8047 109.174 33.1797 109.93 33.9297C110.685 34.6745 111.062 35.6615 111.062 36.8906C111.062 38.2188 110.672 39.2682 109.891 40.0391C109.115 40.8099 108.049 41.1953 106.695 41.1953ZM106.758 34.6953C106.174 34.6953 105.721 34.8958 105.398 35.2969C105.076 35.6979 104.914 36.2656 104.914 37C104.914 38.5365 105.534 39.3047 106.773 39.3047C107.956 39.3047 108.547 38.5156 108.547 36.9375C108.547 35.4427 107.951 34.6953 106.758 34.6953ZM112.664 41V33H117.133C119.039 33 119.992 33.651 119.992 34.9531C119.992 35.4167 119.841 35.8099 119.539 36.1328C119.242 36.4505 118.854 36.6589 118.375 36.7578C118.964 36.8307 119.424 37.0365 119.758 37.375C120.096 37.7083 120.266 38.1172 120.266 38.6016C120.266 39.3255 120.008 39.9062 119.492 40.3438C118.977 40.7812 118.268 41 117.367 41H112.664ZM115.133 34.5078V36.1875H116.344C117.094 36.1875 117.469 35.8932 117.469 35.3047C117.469 34.7734 117.115 34.5078 116.406 34.5078H115.133ZM115.133 37.6406V39.4609H116.555C117.341 39.4609 117.734 39.1432 117.734 38.5078C117.734 37.9297 117.331 37.6406 116.523 37.6406H115.133ZM132.906 41H130.43V33H132.906V41ZM121.945 41V33H124.414V35.7969H126.523C127.43 35.7969 128.135 36.0182 128.641 36.4609C129.146 36.8984 129.398 37.5156 129.398 38.3125C129.398 39.1302 129.148 39.7839 128.648 40.2734C128.148 40.7578 127.456 41 126.57 41H121.945ZM124.414 37.3516V39.4297H125.609C126.443 39.4297 126.859 39.0729 126.859 38.3594C126.859 37.6875 126.453 37.3516 125.641 37.3516H124.414ZM142.945 41H140.703V35.7656C140.5 36.1771 140.281 36.5573 140.047 36.9062L137.328 41H134.992V33H137.25V38.0703C137.417 37.7214 137.599 37.3958 137.797 37.0938L140.516 33H142.945V41ZM142.367 29.1797C142.273 30.0078 141.917 30.6667 141.297 31.1562C140.677 31.6458 139.909 31.8906 138.992 31.8906C138.06 31.8906 137.284 31.6458 136.664 31.1562C136.044 30.6667 135.711 30.0078 135.664 29.1797H137.461C137.487 29.5807 137.651 29.9115 137.953 30.1719C138.255 30.4271 138.612 30.5547 139.023 30.5547C139.43 30.5547 139.781 30.4245 140.078 30.1641C140.375 29.9036 140.539 29.5755 140.57 29.1797H142.367Z" fill="white"/>
<path d="M149.205 36.0682V36.7727C148.572 36.7727 148.129 36.9053 147.875 37.1705C147.625 37.4356 147.5 37.8788 147.5 38.5V40.3182C147.5 40.8409 147.449 41.2936 147.347 41.6761C147.248 42.0587 147.085 42.375 146.858 42.625C146.631 42.875 146.328 43.0606 145.949 43.1818C145.57 43.303 145.102 43.3636 144.545 43.3636V42.25C144.985 42.25 145.33 42.1799 145.58 42.0398C145.833 41.9034 146.011 41.6932 146.114 41.4091C146.22 41.125 146.273 40.7614 146.273 40.3182V38.0455C146.273 37.75 146.311 37.4811 146.386 37.2386C146.466 36.9962 146.61 36.7879 146.818 36.6136C147.027 36.4394 147.322 36.3049 147.705 36.2102C148.091 36.1155 148.591 36.0682 149.205 36.0682ZM144.545 28.8182C145.102 28.8182 145.57 28.8788 145.949 29C146.328 29.1212 146.631 29.3068 146.858 29.5568C147.085 29.8068 147.248 30.1231 147.347 30.5057C147.449 30.8883 147.5 31.3409 147.5 31.8636V33.6818C147.5 34.303 147.625 34.7462 147.875 35.0114C148.129 35.2765 148.572 35.4091 149.205 35.4091V36.1136C148.591 36.1136 148.091 36.0663 147.705 35.9716C147.322 35.8769 147.027 35.7424 146.818 35.5682C146.61 35.3939 146.466 35.1856 146.386 34.9432C146.311 34.7008 146.273 34.4318 146.273 34.1364V31.8636C146.273 31.4205 146.22 31.0568 146.114 30.7727C146.011 30.4848 145.833 30.2727 145.58 30.1364C145.33 30 144.985 29.9318 144.545 29.9318V28.8182ZM149.205 35.4091V36.7727H147.864V35.4091H149.205Z" fill="#333333"/>
<path d="M49.5909 36.1136V35.4091C50.2235 35.4091 50.6648 35.2765 50.9148 35.0114C51.1686 34.7462 51.2955 34.303 51.2955 33.6818V31.8636C51.2955 31.3409 51.3447 30.8883 51.4432 30.5057C51.5455 30.1231 51.7102 29.8068 51.9375 29.5568C52.1648 29.3068 52.4678 29.1212 52.8466 29C53.2254 28.8788 53.6932 28.8182 54.25 28.8182V29.9318C53.8106 29.9318 53.464 30 53.2102 30.1364C52.9602 30.2727 52.7822 30.4848 52.6761 30.7727C52.5739 31.0568 52.5227 31.4205 52.5227 31.8636V34.1364C52.5227 34.4318 52.483 34.7008 52.4034 34.9432C52.3277 35.1856 52.1856 35.3939 51.9773 35.5682C51.7689 35.7424 51.4716 35.8769 51.0852 35.9716C50.7027 36.0663 50.2045 36.1136 49.5909 36.1136ZM54.25 43.3636C53.6932 43.3636 53.2254 43.303 52.8466 43.1818C52.4678 43.0606 52.1648 42.875 51.9375 42.625C51.7102 42.375 51.5455 42.0587 51.4432 41.6761C51.3447 41.2936 51.2955 40.8409 51.2955 40.3182V38.5C51.2955 37.8788 51.1686 37.4356 50.9148 37.1705C50.6648 36.9053 50.2235 36.7727 49.5909 36.7727V36.0682C50.2045 36.0682 50.7027 36.1155 51.0852 36.2102C51.4716 36.3049 51.7689 36.4394 51.9773 36.6136C52.1856 36.7879 52.3277 36.9962 52.4034 37.2386C52.483 37.4811 52.5227 37.75 52.5227 38.0455V40.3182C52.5227 40.7614 52.5739 41.125 52.6761 41.4091C52.7822 41.6932 52.9602 41.9034 53.2102 42.0398C53.464 42.1799 53.8106 42.25 54.25 42.25V43.3636ZM49.5909 36.7727V35.4091H50.9318V36.7727H49.5909Z" fill="#333333"/>
</svg>
